<svg xmlns="http://www.w3.org/2000/svg" viewBox="0 0 256 256">
  <ellipse cx="128" cy="120" rx="110" ry="105" fill="#3a2218"/>
  <ellipse cx="50" cy="150" rx="40" ry="50" fill="#3a2218"/>
  <ellipse cx="206" cy="150" rx="40" ry="50" fill="#3a2218"/>
  <ellipse cx="128" cy="80" rx="85" ry="45" fill="#4a3020"/>
  <ellipse cx="128" cy="125" rx="60" ry="62" fill="#d4a574"/>
  <ellipse cx="128" cy="200" rx="75" ry="55" fill="#3a2218"/>
  <ellipse cx="128" cy="185" rx="65" ry="42" fill="#4a3020"/>
  <circle cx="108" cy="118" r="8" fill="#1a1a1a"/>
  <circle cx="148" cy="118" r="8" fill="#1a1a1a"/>
  <circle cx="110" cy="116" r="3" fill="#fff"/>
  <circle cx="150" cy="116" r="3" fill="#fff"/>
  <path d="M92 104 Q108 94 124 103" stroke="#3a2218" stroke-width="6" fill="none" stroke-linecap="round"/>
  <path d="M132 103 Q148 94 164 104" stroke="#3a2218" stroke-width="6" fill="none" stroke-linecap="round"/>
  <ellipse cx="128" cy="138" rx="10" ry="8" fill="#c49060"/>
  <path d="M108 155 Q128 175 148 155" stroke="#2a1810" stroke-width="2.5" fill="#fff" stroke-linecap="round"/>
  <path d="M108 155 Q128 162 148 155" fill="#2a1810"/>
</svg>